<?xml version="1.0" standalone="no"?>
<!DOCTYPE svg PUBLIC "-//W3C//DTD SVG 20010904//EN"
 "http://www.w3.org/TR/2001/REC-SVG-20010904/DTD/svg10.dtd">
<svg version="1.0" xmlns="http://www.w3.org/2000/svg"
 width="260.000000pt" height="260.000000pt" viewBox="0 0 260.000000 260.000000"
 preserveAspectRatio="xMidYMid meet">
<metadata>
Created by potrace 1.11, written by Peter Selinger 2001-2013
</metadata>
<g transform="translate(0.000000,260.000000) scale(0.100000,-0.100000)"
fill="#000000" stroke="none">
<path d="M1740 2363 c-158 -59 -169 -61 -401 -48 l-86 5 -99 -71 c-92 -65
-100 -74 -116 -122 -23 -68 -30 -142 -19 -200 6 -36 5 -54 -9 -85 -11 -25 -15
-44 -9 -53 5 -8 9 -19 9 -26 0 -10 -74 -31 -169 -49 -50 -10 -43 -18 24 -31
181 -33 171 -29 194 -84 l22 -50 -23 -19 c-13 -11 -26 -19 -29 -20 -19 -1 -30
-104 -20 -195 1 -5 9 2 18 15 9 14 23 31 31 39 7 8 20 24 29 37 8 13 19 24 23
24 9 0 6 -87 -3 -97 -4 -3 -7 -14 -7 -23 0 -9 -10 -22 -23 -29 -20 -11 -35
-10 -102 3 -11 2 -40 7 -65 11 -25 3 -57 9 -72 11 -30 5 -30 4 -4 -80 16 -53
8 -80 -20 -69 -8 3 -30 -7 -49 -21 -42 -32 -99 -57 -186 -80 l-66 -17 -27 -77
c-14 -42 -42 -126 -60 -187 -38 -126 -23 -119 -165 -74 -90 29 -94 29 -110 12
-38 -42 -83 -104 -79 -109 3 -2 41 -7 84 -10 43 -4 97 -10 119 -14 37 -7 36
-8 -25 -10 -121 -4 -171 -7 -177 -13 -8 -8 86 -119 96 -113 4 3 20 7 35 10 22
4 29 0 39 -21 9 -21 8 -27 -4 -37 -9 -6 -29 -21 -45 -34 -16 -13 -36 -27 -44
-32 -21 -13 -12 -18 64 -39 56 -15 68 -16 73 -5 9 24 43 -3 43 -34 l0 -28 183
1 c201 1 218 -1 210 -20 -3 -10 2 -13 19 -10 12 3 56 11 96 19 l73 14 22 -29
c26 -37 30 -36 272 26 l180 47 498 4 c527 3 509 4 632 -42 20 -7 -42 55 -102
102 -31 24 -32 29 -32 95 0 38 4 69 8 69 4 0 22 -16 41 -35 36 -37 47 -42 47
-22 0 6 5 37 12 67 7 30 14 71 17 90 3 19 7 45 9 58 2 12 0 22 -4 22 -5 0 -19
28 -31 63 -29 80 -46 107 -68 107 -9 0 -34 5 -55 11 -30 8 -41 18 -54 47 -9
20 -21 47 -26 60 -7 15 -70 55 -186 118 -97 52 -190 107 -208 123 l-32 28 59
28 c33 16 60 31 60 34 0 7 -117 81 -127 81 -5 0 -37 -23 -72 -50 -41 -32 -68
-47 -74 -41 -6 6 -20 48 -33 95 l-23 86 27 -6 c15 -4 35 -11 45 -16 10 -5 20
-8 22 -6 2 2 -5 38 -16 81 -13 51 -18 97 -15 135 4 59 25 162 32 162 2 0 51
-23 108 -52 l104 -52 69 27 c38 15 74 27 81 27 28 0 9 18 -25 24 -55 9 -61 15
-79 86 -9 36 -20 70 -25 76 -5 6 -30 11 -56 13 -27 1 -57 4 -68 6 -11 2 -39 4
-62 4 -45 1 -45 0 -59 96 -3 22 -18 55 -32 74 -55 70 -64 82 -61 84 2 2 27 21
54 44 48 39 106 76 173 110 17 9 32 20 32 25 0 4 -1 8 -2 7 -2 -1 -68 -26
-148 -56z"/>
</g>
</svg>
